<svg width="24" height="24" viewBox="0 0 24 24" fill="none" xmlns="http://www.w3.org/2000/svg">
<g clip-path="url(#clip0_254:1380)">
<path d="M5.26623 9.765C5.73412 8.34945 6.63709 7.11781 7.84635 6.2458C9.0556 5.37378 10.5094 4.90594 12.0002 4.909C13.6902 4.909 15.2182 5.509 16.4182 6.491L19.9102 3C17.7822 1.145 15.0552 0 12.0002 0C7.27023 0 3.19823 2.698 1.24023 6.65L5.26623 9.765Z" fill="#EA4335"/>
<path d="M16.0403 18.013C14.9503 18.716 13.5663 19.091 12.0003 19.091C10.5154 19.0941 9.06711 18.6299 7.86054 17.7644C6.65398 16.8988 5.75025 15.6756 5.2773 14.268L1.2373 17.335C2.22855 19.3413 3.76257 21.0294 5.66513 22.2076C7.56768 23.3857 9.76251 24.0067 12.0003 24C14.9333 24 17.7353 22.957 19.8343 21L16.0413 18.013H16.0403Z" fill="#34A853"/>
<path d="M19.834 21C22.029 18.952 23.454 15.904 23.454 12C23.454 11.29 23.345 10.527 23.182 9.81799H12V14.455H18.436C18.119 16.014 17.266 17.221 16.041 18.013L19.834 21Z" fill="#4A90E2"/>
<path d="M5.27712 14.268C5.03247 13.5369 4.90819 12.7709 4.90912 12C4.90912 11.218 5.03412 10.467 5.26612 9.76499L1.24012 6.64999C0.416494 8.31268 -0.00807994 10.1445 0.000116455 12C0.000116455 13.92 0.445116 15.73 1.23712 17.335L5.27712 14.268Z" fill="#FBBC05"/>
</g>
<defs>
<clipPath id="clip0_254:1380">
<rect width="24" height="24" fill="white"/>
</clipPath>
</defs>
</svg>
